<svg viewBox="0 0 43.9533 36.6843" fill="none" xmlns="http://www.w3.org/2000/svg" xmlns:xlink="http://www.w3.org/1999/xlink" x="0" y="0"><path id="Vector" d="M43.8344,8.5291c-0.13,-0.183 -0.27,-0.275 -0.27,-0.275c-0.05,-0.046 -0.19,-0.138 -0.32,-0.138c-0.14,-0.046 -0.23,-0.046 -0.42,-0.046c-0.36,0 0.28,0 -0.59,0c-0.69,0 -1.06,0 -1.51,0c0,0 -0.56,0 -1.61,0h-29.21l-2.38,-7.291c-0.1,-0.275 -0.28,-0.458 -0.46,-0.55l-0.05,-0.046c-0.18,-0.137 -0.41,-0.183 -0.64,-0.183h-5.14c-0.68,0 -1.23,0.55 -1.23,1.238c0,0.688 0.55,1.238 1.23,1.238h4.27l9.08,28.018v0.046c0.14,0.504 0.64,0.871 1.19,0.871h1.24c-0.69,0.55 -1.1,1.375 -1.1,2.293c0,1.65 1.33,2.98 2.98,2.98c1.65,0 2.98,-1.33 2.98,-2.98c0,-0.918 -0.41,-1.789 -1.1,-2.293h10.27c-0.69,0.55 -1.1,1.375 -1.1,2.293c0,1.65 1.33,2.98 2.98,2.98c1.65,0 2.98,-1.33 2.98,-2.98c0,-0.918 -0.41,-1.789 -1.1,-2.293h3.26c0.32,0 0.64,-0.138 0.87,-0.367c0.23,-0.229 0.36,-0.55 0.36,-0.871c0,-0.688 -0.55,-1.238 -1.23,-1.238h-21.37l-1.42,-4.448h20.08c0.37,0 0.73,-0.046 1.1,0c0.05,0 0.23,0 0.51,0c0.22,-0.046 0.36,-0.046 0.45,-0.092c0.14,-0.092 0.23,-0.229 0.42,-0.55c0.18,-0.367 0.27,-0.688 0.32,-0.734l0.69,-1.605c0.55,-1.238 1.05,-2.476 1.6,-3.714c1.05,-2.431 1.56,-3.669 1.56,-3.669c0.5,-1.1 0.92,-2.247 1.42,-3.347c0,0 0.83,-1.697 0.41,-2.247zM22.2444,20.0851c0,0.504 -0.42,0.962 -0.97,0.962c-0.27,0 -0.5,-0.091 -0.69,-0.275c-0.18,-0.183 -0.27,-0.412 -0.27,-0.687v-7.383c0,-0.55 0.41,-0.963 0.96,-0.963c0.28,0 0.51,0.092 0.69,0.275c0.18,0.183 0.28,0.413 0.28,0.688zM31.3144,20.0851c0,0.504 -0.41,0.962 -0.96,0.962c-0.5,0 -0.96,-0.412 -0.96,-0.962v-7.383c0,-0.55 0.41,-0.963 0.96,-0.963c0.28,0 0.51,0.092 0.69,0.275c0.18,0.183 0.27,0.413 0.27,0.688z" fill="currentColor"/></svg>