<svg width="64" height="64" viewBox="0 0 64 64" fill="none" xmlns="http://www.w3.org/2000/svg">
<path fill-rule="evenodd" clip-rule="evenodd" d="M14.4836 31.6609C23.8148 27.5969 30.0357 24.9153 33.146 23.6225C42.0356 19.9233 43.8788 19.2833 45.0821 19.2641C45.3444 19.2577 45.9396 19.3281 46.3236 19.6353C46.65 19.8977 46.7396 20.2497 46.778 20.4993C46.8164 20.7489 46.874 21.3185 46.8292 21.7601C46.3492 26.8225 44.2628 39.0977 43.2068 44.7681C42.7588 47.1681 41.8756 47.9681 41.018 48.0513C39.162 48.2241 37.7476 46.8225 35.9492 45.6449C33.1332 43.8017 31.5396 42.6497 28.8068 40.8449C25.6452 38.7649 27.6932 37.6193 29.498 35.7505C29.9716 35.2641 38.1572 27.8145 38.3172 27.1361C38.3364 27.0529 38.3556 26.7393 38.17 26.5729C37.9844 26.4065 37.7092 26.4641 37.5044 26.5089C37.2228 26.5729 32.7236 29.5489 24.0068 35.4305C22.7268 36.3073 21.5748 36.7361 20.538 36.7105C19.3924 36.6849 17.1972 36.0641 15.5652 35.5329C13.562 34.8801 11.9684 34.5345 12.1092 33.4337C12.1796 32.8513 12.9732 32.2625 14.4836 31.6609Z" fill="black"/>
</svg>
